<svg xmlns="http://www.w3.org/2000/svg" width="89.514" height="89.514" viewBox="0 0 89.514 89.514">
  <g id="ميزات_ايقون" data-name="ميزات ايقون" transform="translate(-939.295 -1234.295)">
    <circle id="Ellipse_95" data-name="Ellipse 95" cx="44.757" cy="44.757" r="44.757" transform="translate(939.295 1234.295)" fill="#eff1fc"/>
    <g id="fireworks" transform="translate(954.787 1251.509)">
      <path id="Path_1203" data-name="Path 1203" d="M176.6,24.377a1.149,1.149,0,0,1-.383-.066l-5.732-2.039-5.732,2.039a1.143,1.143,0,0,1-1.526-1.109l.167-6.082-3.71-4.822a1.143,1.143,0,0,1,.583-1.793l5.836-1.72,3.439-5.019a1.144,1.144,0,0,1,1.886,0l3.439,5.019L180.7,10.5a1.143,1.143,0,0,1,.583,1.793l-3.71,4.822.167,6.081a1.144,1.144,0,0,1-1.143,1.175Zm-14.087-12.15,2.941,3.822a1.142,1.142,0,0,1,.237.728l-.133,4.821,4.544-1.616a1.145,1.145,0,0,1,.766,0l4.543,1.616-.132-4.821a1.14,1.14,0,0,1,.237-.728l2.941-3.822-4.625-1.364a1.141,1.141,0,0,1-.62-.45l-2.726-3.978-2.726,3.978a1.141,1.141,0,0,1-.62.45Zm0,0" transform="translate(-141.217 -2.953)" fill="#6b739c"/>
      <path id="Path_1204" data-name="Path 1204" d="M379.51,11.4a1.143,1.143,0,0,1-1.143-1.174l.07-2.562L376.875,5.63a1.143,1.143,0,0,1,.583-1.793l2.459-.725L381.365,1a1.143,1.143,0,0,1,1.886,0L384.7,3.111l2.458.725a1.143,1.143,0,0,1,.583,1.793l-1.563,2.032.071,2.562a1.143,1.143,0,0,1-1.526,1.108l-2.415-.859-2.415.859A1.149,1.149,0,0,1,379.51,11.4Zm2.8-3.281a1.136,1.136,0,0,1,.383.066l1.227.436-.036-1.3a1.139,1.139,0,0,1,.237-.728l.794-1.032-1.249-.368a1.143,1.143,0,0,1-.62-.45l-.736-1.074-.736,1.074a1.144,1.144,0,0,1-.62.45l-1.249.368.794,1.032a1.142,1.142,0,0,1,.236.728l-.036,1.3,1.227-.436A1.144,1.144,0,0,1,382.308,8.117Zm0,0" transform="translate(-333.581 -0.5)" fill="#6b739c"/>
      <path id="Path_1205" data-name="Path 1205" d="M44.622,11.4a1.149,1.149,0,0,1-.383-.066l-2.415-.859-2.415.859a1.143,1.143,0,0,1-1.526-1.108l.071-2.562L36.391,5.63a1.144,1.144,0,0,1,.583-1.794l2.458-.725L40.881,1a1.144,1.144,0,0,1,1.886,0l1.449,2.114,2.458.725a1.143,1.143,0,0,1,.583,1.793L45.695,7.661l.071,2.562A1.143,1.143,0,0,1,44.622,11.4Zm-2.8-3.281a1.139,1.139,0,0,1,.383.066l1.227.436-.036-1.3a1.142,1.142,0,0,1,.236-.728l.794-1.032L43.18,5.189a1.141,1.141,0,0,1-.62-.45l-.736-1.074-.736,1.074a1.144,1.144,0,0,1-.62.45l-1.249.368.794,1.032a1.142,1.142,0,0,1,.237.728l-.036,1.3,1.227-.436A1.137,1.137,0,0,1,41.824,8.117Zm0,0" transform="translate(-32.021 -0.5)" fill="#6b739c"/>
      <path id="Path_1206" data-name="Path 1206" d="M247.143,396.3a1.139,1.139,0,0,1-.223-.023,1.088,1.088,0,0,1-.214-.065,1.136,1.136,0,0,1-.2-.105,1.106,1.106,0,0,1-.315-.315,1.1,1.1,0,0,1-.105-.2,1.085,1.085,0,0,1-.065-.214,1.1,1.1,0,0,1,0-.446,1.113,1.113,0,0,1,.065-.215,1.126,1.126,0,0,1,.105-.2,1.1,1.1,0,0,1,.315-.315,1.107,1.107,0,0,1,.2-.105,1.149,1.149,0,0,1,.214-.065,1.136,1.136,0,0,1,.446,0,1.148,1.148,0,0,1,.214.065,1.1,1.1,0,0,1,.2.105,1.089,1.089,0,0,1,.174.142,1.077,1.077,0,0,1,.142.174,1.157,1.157,0,0,1,.105.2,1.078,1.078,0,0,1,.065.215,1.081,1.081,0,0,1,0,.446,1.147,1.147,0,0,1-.065.214,1.132,1.132,0,0,1-.105.2,1.1,1.1,0,0,1-.316.315,1.128,1.128,0,0,1-.2.105,1.087,1.087,0,0,1-.214.065A1.139,1.139,0,0,1,247.143,396.3Zm0,0" transform="translate(-217.878 -349.024)" fill="#6b739c"/>
      <path id="Path_1207" data-name="Path 1207" d="M247.143,217.149A1.143,1.143,0,0,1,246,216.006V197.143a1.143,1.143,0,1,1,2.286,0v18.863A1.143,1.143,0,0,1,247.143,217.149Zm0,0" transform="translate(-217.878 -173.651)" fill="#6b739c"/>
      <path id="Path_1208" data-name="Path 1208" d="M363.286,178.429a1.1,1.1,0,0,1-.179-.014,1.143,1.143,0,0,1-.854-.638l-2.055-4.322-4.322-2.055a1.143,1.143,0,0,1-.3-1.863l3.476-3.289.618-4.746a1.143,1.143,0,0,1,1.68-.856l4.2,2.289,4.7-.878a1.143,1.143,0,0,1,1.334,1.333l-.878,4.7,2.289,4.2a1.143,1.143,0,0,1-.856,1.68l-4.745.618-3.29,3.476a1.141,1.141,0,0,1-.83.358Zm-4.922-8.378,3.183,1.513a1.145,1.145,0,0,1,.542.542l1.513,3.183,2.422-2.559a1.143,1.143,0,0,1,.683-.348l3.494-.455-1.686-3.095a1.145,1.145,0,0,1-.12-.756l.647-3.464-3.464.647a1.145,1.145,0,0,1-.756-.12l-3.1-1.685-.455,3.494a1.141,1.141,0,0,1-.348.682Zm0,0" transform="translate(-314.616 -142.215)" fill="#6b739c"/>
      <path id="Path_1209" data-name="Path 1209" d="M264.778,304.437c-.04,0-.079,0-.119-.006a1.144,1.144,0,0,1-1.019-1.255,30.16,30.16,0,0,1,7.035-16.1,31.354,31.354,0,0,1,5.994-5.61,1.143,1.143,0,1,1,1.267,1.9,28.834,28.834,0,0,0-5.507,5.173,27.887,27.887,0,0,0-6.514,14.867,1.143,1.143,0,0,1-1.136,1.025Zm0,0" transform="translate(-233.495 -249.179)" fill="#6b739c"/>
      <path id="Path_1210" data-name="Path 1210" d="M9.861,178.43a1.144,1.144,0,0,1-.83-.357L5.741,174.6,1,173.979A1.143,1.143,0,0,1,.14,172.3l2.289-4.2-.878-4.7a1.143,1.143,0,0,1,1.333-1.333l4.7.878,4.2-2.289a1.143,1.143,0,0,1,1.68.856l.618,4.746,3.476,3.289a1.144,1.144,0,0,1-.3,1.863l-4.322,2.055-2.054,4.322a1.144,1.144,0,0,1-.854.638,1.1,1.1,0,0,1-.179.014Zm-6.915-6.5,3.494.456a1.14,1.14,0,0,1,.682.348l2.423,2.559,1.513-3.183a1.143,1.143,0,0,1,.542-.542l3.183-1.513-2.559-2.423a1.141,1.141,0,0,1-.348-.682l-.455-3.494-3.095,1.686a1.145,1.145,0,0,1-.756.12L4.1,164.612l.647,3.464a1.139,1.139,0,0,1-.12.756Zm0,0" transform="translate(-0.001 -142.216)" fill="#6b739c"/>
      <path id="Path_1211" data-name="Path 1211" d="M132.462,304.435a1.143,1.143,0,0,1-1.136-1.026,27.888,27.888,0,0,0-6.514-14.866,28.841,28.841,0,0,0-5.508-5.173,1.143,1.143,0,0,1,1.267-1.9,31.368,31.368,0,0,1,5.994,5.61,30.16,30.16,0,0,1,7.035,16.1,1.143,1.143,0,0,1-1.02,1.254A1.052,1.052,0,0,1,132.462,304.435Zm0,0" transform="translate(-105.214 -249.177)" fill="#6b739c"/>
      <path id="Path_1212" data-name="Path 1212" d="M325.706,396.356a1.143,1.143,0,0,1-1.038-1.62,17.3,17.3,0,0,1,6.787-7.453,17.72,17.72,0,0,1,4.3-1.943,1.143,1.143,0,0,1,.589,2.209,15.837,15.837,0,0,0-3.7,1.686,15.029,15.029,0,0,0-5.9,6.454A1.143,1.143,0,0,1,325.706,396.356Zm0,0" transform="translate(-287.459 -341.311)" fill="#6b739c"/>
      <path id="Path_1213" data-name="Path 1213" d="M97.944,396.356a1.144,1.144,0,0,1-1.04-.667,15.023,15.023,0,0,0-5.9-6.454,15.822,15.822,0,0,0-3.7-1.686,1.143,1.143,0,0,1,.589-2.209,17.742,17.742,0,0,1,4.3,1.943,17.3,17.3,0,0,1,6.787,7.453,1.143,1.143,0,0,1-1.038,1.62Zm0,0" transform="translate(-76.576 -341.311)" fill="#6b739c"/>
      <path id="Path_1214" data-name="Path 1214" d="M456.987,329.9a1.143,1.143,0,0,1-1.143-1.143v-.952a1.143,1.143,0,1,1,2.286,0v.952A1.143,1.143,0,0,1,456.987,329.9Zm0,0" transform="translate(-403.733 -289.377)" fill="#6b739c"/>
      <path id="Path_1215" data-name="Path 1215" d="M456.987,375.051a1.144,1.144,0,0,1-1.143-1.143v-.952a1.143,1.143,0,1,1,2.286,0v.952A1.143,1.143,0,0,1,456.987,375.051Zm0,0" transform="translate(-403.733 -329.365)" fill="#6b739c"/>
      <path id="Path_1216" data-name="Path 1216" d="M476.353,355.688H475.4a1.143,1.143,0,1,1,0-2.286h.952a1.143,1.143,0,1,1,0,2.286Zm0,0" transform="translate(-420.041 -313.059)" fill="#6b739c"/>
      <path id="Path_1217" data-name="Path 1217" d="M431.2,355.688h-.952a1.143,1.143,0,0,1,0-2.286h.952a1.143,1.143,0,0,1,0,2.286Zm0,0" transform="translate(-380.055 -313.059)" fill="#6b739c"/>
      <path id="Path_1218" data-name="Path 1218" d="M37.3,329.9a1.143,1.143,0,0,1-1.143-1.143v-.952a1.143,1.143,0,1,1,2.286,0v.952A1.143,1.143,0,0,1,37.3,329.9Zm0,0" transform="translate(-32.019 -289.377)" fill="#6b739c"/>
      <path id="Path_1219" data-name="Path 1219" d="M37.3,375.051a1.143,1.143,0,0,1-1.143-1.143v-.952a1.143,1.143,0,1,1,2.286,0v.952A1.143,1.143,0,0,1,37.3,375.051Zm0,0" transform="translate(-32.019 -329.365)" fill="#6b739c"/>
      <path id="Path_1220" data-name="Path 1220" d="M56.661,355.688H55.71a1.143,1.143,0,1,1,0-2.286h.952a1.143,1.143,0,0,1,0,2.286Zm0,0" transform="translate(-48.328 -313.059)" fill="#6b739c"/>
      <path id="Path_1221" data-name="Path 1221" d="M11.509,355.688h-.952a1.143,1.143,0,0,1,0-2.286h.952a1.143,1.143,0,1,1,0,2.286Zm0,0" transform="translate(-8.338 -313.059)" fill="#6b739c"/>
    </g>
  </g>
</svg>
